# xmcd
#
# Track frame offsets: 
#        150
#        20060
#        45780
#        62703
#
# Disc length: 1153 seconds
#
# Revision: 4
# Processed by: cddbd v1.5.2PL0 Copyright (c) Steve Scherf et al.
# Submitted via: ExactAudioCopy v1.3
#
DISCID=29047f04
DTITLE=The The - Armageddon Days Are Here (Again)
DYEAR=1989
DGENRE=New Wave
TTITLE0=Armageddon Days Are Here (Again) (Radio Edit)
TTITLE1=Perfect
TTITLE2=Mental Healing Process
TTITLE3=Armageddon Days Are Here (Again) (Orchestral Version)
EXTD=
EXTT0=
EXTT1=
EXTT2=
EXTT3=
PLAYORDER=
